<?xml version="1.0" encoding="utf-8"?>
<!-- Generator: Adobe Illustrator 27.7.0, SVG Export Plug-In . SVG Version: 6.00 Build 0)  -->
<svg version="1.1" id="Layer_1" xmlns="http://www.w3.org/2000/svg" xmlns:xlink="http://www.w3.org/1999/xlink" x="0px" y="0px"
	 viewBox="0 0 200 200" style="enable-background:new 0 0 200 200;" xml:space="preserve">
<style type="text/css">
	.st0{fill:#27AAE1;}
	.st1{fill:#1C75BC;}
	.st2{fill:#FFFFFF;}
	.st3{fill:none;stroke:#FFFFFF;stroke-width:1.9125;stroke-linecap:round;stroke-linejoin:round;stroke-miterlimit:10;}
	.st4{fill:none;stroke:#FFFFFF;stroke-width:7.65;stroke-linecap:round;stroke-linejoin:round;stroke-miterlimit:10;}
	.st5{fill:none;stroke:#000000;stroke-width:1.9125;stroke-linecap:round;stroke-linejoin:round;stroke-miterlimit:10;}
	.st6{fill:none;stroke:#000000;stroke-width:7.65;stroke-linecap:round;stroke-linejoin:round;stroke-miterlimit:10;}
</style>
<g>
	<g>
		<g>
			<polyline class="st0" points="17.23,145.7 17.48,145.7 17.74,145.7 18,145.7 18.26,145.7 18.52,145.7 18.78,145.7 19.04,145.7 
				19.3,145.7 19.56,145.7 19.82,145.7 20.07,145.7 20.33,145.7 20.59,145.69 20.85,145.69 21.11,145.69 21.37,145.69 21.63,145.69 
				21.89,145.69 22.15,145.69 22.4,145.69 22.66,145.69 22.92,145.69 23.18,145.69 23.44,145.69 23.7,145.69 23.96,145.69 
				24.22,145.69 24.48,145.69 24.74,145.69 24.99,145.69 25.25,145.69 25.51,145.69 25.77,145.69 26.03,145.69 26.29,145.69 
				26.55,145.69 26.81,145.69 27.07,145.69 27.33,145.69 27.58,145.69 27.84,145.69 28.1,145.69 28.36,145.69 28.62,145.69 
				28.88,145.69 29.14,145.68 29.4,145.68 29.66,145.68 29.91,145.68 30.17,145.68 30.43,145.68 30.69,145.67 30.95,145.67 
				31.21,145.67 31.47,145.66 31.73,145.66 31.99,145.66 32.25,145.65 32.5,145.65 32.76,145.64 33.02,145.63 33.28,145.63 
				33.54,145.62 33.8,145.61 34.06,145.6 34.32,145.59 34.58,145.58 34.84,145.56 35.09,145.55 35.35,145.53 35.61,145.51 
				35.87,145.49 36.13,145.47 36.39,145.45 36.65,145.42 36.91,145.39 37.17,145.36 37.43,145.33 37.68,145.29 37.94,145.25 
				38.2,145.21 38.46,145.16 38.72,145.1 38.98,145.05 39.24,144.98 39.5,144.91 39.76,144.84 40.01,144.76 40.27,144.67 
				40.53,144.58 40.79,144.47 41.05,144.36 41.31,144.24 41.57,144.11 41.83,143.97 42.09,143.82 42.35,143.66 42.6,143.49 
				42.86,143.3 43.12,143.1 43.38,142.89 43.64,142.66 43.9,142.41 44.16,142.15 44.42,141.87 44.68,141.57 44.94,141.25 
				45.19,140.91 45.45,140.54 45.71,140.16 45.97,139.75 46.23,139.32 46.49,138.86 46.75,138.37 47.01,137.85 47.27,137.31 
				47.52,136.73 47.78,136.12 48.04,135.48 48.3,134.81 48.56,134.1 48.82,133.36 49.08,132.57 49.34,131.75 49.6,130.89 49.86,130 
				50.11,129.05 50.37,128.07 50.63,127.05 50.89,125.98 51.15,124.87 51.41,123.71 51.67,122.51 51.93,121.26 52.19,119.96 
				52.45,118.62 52.7,117.24 52.96,115.8 53.22,114.32 53.48,112.8 53.74,111.22 54,109.61 54.26,107.94 54.52,106.24 54.78,104.49 
				55.03,102.69 55.29,100.86 55.55,98.98 55.81,97.07 56.07,95.12 56.33,93.14 56.59,91.12 56.85,89.07 57.11,86.99 57.37,84.89 
				57.62,82.76 57.88,80.61 58.14,78.45 58.4,76.27 58.66,74.07 58.92,71.87 59.18,69.66 59.44,67.45 59.7,65.24 59.96,63.04 
				60.21,60.85 60.47,58.66 60.73,56.5 60.99,54.36 61.25,52.24 61.51,50.15 61.77,48.1 62.03,46.08 62.29,44.1 62.54,42.17 
				62.8,40.29 63.06,38.47 63.32,36.7 63.58,34.99 63.84,33.35 64.1,31.77 64.36,30.27 64.62,28.85 64.88,27.5 65.13,26.24 
				65.39,25.06 65.65,23.97 65.91,22.97 66.17,22.06 66.43,21.25 66.69,20.54 66.95,19.92 67.21,19.4 67.47,18.99 67.72,18.68 
				67.98,18.47 68.24,18.37 68.5,18.37 68.76,18.47 69.02,18.68 69.28,18.99 69.54,19.41 69.8,19.92 70.06,20.54 70.31,21.25 
				70.57,22.07 70.83,22.97 71.09,23.97 71.35,25.06 71.61,26.24 71.87,27.5 72.13,28.85 72.39,30.27 72.64,31.77 72.9,33.35 
				73.16,34.99 73.42,36.7 73.68,38.46 73.94,40.29 74.2,42.17 74.46,44.1 74.72,46.07 74.98,48.09 75.23,50.14 75.49,52.23 
				75.75,54.34 76.01,56.48 76.27,58.64 76.53,60.82 76.79,63.01 77.05,65.21 77.31,67.42 77.57,69.63 77.82,71.83 78.08,74.03 
				78.34,76.22 78.6,78.4 78.86,80.57 79.12,82.71 79.38,84.84 79.64,86.94 79.9,89.01 80.15,91.06 80.41,93.08 80.67,95.06 
				80.93,97.01 81.19,98.92 81.45,100.79 81.71,102.62 81.97,104.41 82.23,106.16 82.49,107.87 82.74,109.53 83,111.15 
				83.26,112.72 83.52,114.24 83.78,115.72 84.04,117.16 84.3,118.54 84.56,119.88 84.82,121.18 85.08,122.43 85.33,123.63 
				85.59,124.79 85.85,125.9 86.11,126.97 86.37,128 86.63,128.98 86.89,129.92 87.15,130.82 87.41,131.68 87.66,132.5 
				87.92,133.29 88.18,134.03 88.44,134.74 88.7,135.42 88.96,136.06 89.22,136.67 89.48,137.25 89.74,137.79 90,138.31 
				90.25,138.8 90.51,139.26 90.77,139.7 91.03,140.11 91.29,140.5 91.55,140.86 91.81,141.2 92.07,141.52 92.33,141.83 
				92.59,142.11 92.84,142.37 93.1,142.62 93.36,142.85 93.62,143.07 93.88,143.27 94.14,143.46 94.4,143.63 94.66,143.8 
				94.92,143.95 95.17,144.09 95.43,144.22 95.69,144.34 95.95,144.45 96.21,144.56 96.47,144.65 96.73,144.74 96.99,144.82 
				97.25,144.9 97.51,144.97 97.76,145.03 98.02,145.09 98.28,145.15 98.54,145.19 98.8,145.24 99.06,145.28 99.32,145.32 
				99.58,145.36 99.84,145.39 100.1,145.42 100.35,145.44 100.61,145.47 100.87,145.49 101.13,145.51 101.39,145.53 101.65,145.54 
				101.91,145.56 102.17,145.57 102.43,145.59 102.68,145.6 102.94,145.61 103.2,145.62 103.46,145.62 103.72,145.63 103.98,145.64 
				104.24,145.64 104.5,145.65 104.76,145.65 105.02,145.66 105.27,145.66 105.53,145.67 105.79,145.67 106.05,145.67 
				106.31,145.68 106.57,145.68 106.83,145.68 107.09,145.68 107.35,145.68 107.61,145.68 107.86,145.69 108.12,145.69 
				108.38,145.69 108.64,145.69 108.9,145.69 109.16,145.69 109.42,145.69 109.68,145.69 109.94,145.69 110.2,145.69 110.45,145.69 
				110.71,145.69 110.97,145.69 111.23,145.69 111.49,145.69 111.75,145.69 112.01,145.69 112.27,145.69 112.53,145.69 
				112.78,145.69 113.04,145.69 113.3,145.69 113.56,145.69 113.82,145.69 114.08,145.69 114.34,145.69 114.6,145.69 114.86,145.69 
				115.12,145.69 115.37,145.69 115.63,145.69 115.89,145.69 116.15,145.69 116.41,145.69 116.67,145.7 116.93,145.7 117.19,145.7 
				117.45,145.7 117.71,145.7 117.96,145.7 118.22,145.7 118.48,145.7 118.74,145.7 119,145.7 119.26,145.7 119.52,145.7 
				119.78,145.7 120.04,145.7 120.29,145.7 120.55,145.7 120.81,145.7 121.07,145.7 121.33,145.7 121.59,145.7 121.85,145.7 
				122.11,145.7 122.37,145.7 122.63,145.7 122.88,145.7 123.14,145.7 123.4,145.7 123.66,145.7 123.92,145.7 124.18,145.7 
				124.44,145.7 124.7,145.7 124.96,145.7 125.22,145.7 125.47,145.7 125.73,145.7 125.99,145.7 126.25,145.7 126.51,145.7 
				126.77,145.7 127.03,145.7 127.29,145.7 127.55,145.7 127.8,145.7 128.06,145.7 128.32,145.7 128.58,145.7 128.84,145.7 
				129.1,145.7 129.36,145.7 129.62,145.7 129.88,145.7 130.14,145.7 130.39,145.7 130.65,145.7 130.91,145.7 131.17,145.7 
				131.43,145.7 131.69,145.7 131.95,145.7 132.21,145.7 132.47,145.7 132.73,145.7 132.98,145.7 133.24,145.7 133.5,145.7 
				133.76,145.7 134.02,145.7 134.28,145.7 134.54,145.7 134.8,145.7 135.06,145.7 135.31,145.7 135.57,145.7 135.83,145.7 
				136.09,145.7 136.35,145.7 136.61,145.7 136.87,145.7 137.13,145.7 137.39,145.7 137.65,145.7 137.9,145.7 138.16,145.7 
				138.42,145.7 138.68,145.7 138.94,145.7 139.2,145.7 139.46,145.7 139.72,145.7 139.98,145.7 140.24,145.7 140.49,145.7 
				140.75,145.7 141.01,145.7 141.27,145.7 141.53,145.7 141.79,145.7 142.05,145.7 142.31,145.7 142.57,145.7 142.83,145.7 
				143.08,145.7 143.34,145.7 143.6,145.7 143.86,145.7 144.12,145.7 144.38,145.7 144.64,145.7 144.9,145.7 145.16,145.7 
				145.41,145.7 145.67,145.7 145.93,145.7 146.19,145.7 146.45,145.7 146.71,145.7 146.97,145.7 147.23,145.7 147.49,145.7 
				147.75,145.7 148,145.7 148.26,145.7 148.52,145.7 148.78,145.7 149.04,145.7 149.3,145.7 149.56,145.7 149.82,145.7 
				150.08,145.7 150.34,145.7 150.59,145.7 150.85,145.7 151.11,145.7 151.37,145.7 151.63,145.7 151.89,145.7 152.15,145.7 
				152.41,145.7 152.67,145.7 152.92,145.7 153.18,145.7 153.44,145.7 153.7,145.7 153.96,145.7 154.22,145.7 154.48,145.7 
				154.74,145.7 155,145.7 155.26,145.7 155.51,145.7 155.77,145.7 156.03,145.7 156.29,145.7 156.55,145.7 156.81,145.7 
				157.07,145.7 157.33,145.7 157.59,145.7 157.85,145.7 158.1,145.7 158.36,145.7 158.62,145.7 158.88,145.7 159.14,145.7 
				159.4,145.7 159.66,145.7 159.92,145.7 160.18,145.7 160.43,145.7 160.69,145.7 160.95,145.7 161.21,145.7 161.47,145.7 			"/>
		</g>
		<g>
			<polyline class="st1" points="19.3,145.7 19.56,145.7 19.82,145.7 20.07,145.7 20.33,145.7 20.59,145.7 20.85,145.7 21.11,145.7 
				21.37,145.7 21.63,145.7 21.89,145.7 22.15,145.7 22.4,145.7 22.66,145.7 22.92,145.7 23.18,145.7 23.44,145.7 23.7,145.7 
				23.96,145.7 24.22,145.7 24.48,145.7 24.74,145.7 24.99,145.7 25.25,145.7 25.51,145.7 25.77,145.7 26.03,145.7 26.29,145.7 
				26.55,145.7 26.81,145.7 27.07,145.7 27.33,145.7 27.58,145.7 27.84,145.7 28.1,145.7 28.36,145.7 28.62,145.7 28.88,145.7 
				29.14,145.7 29.4,145.7 29.66,145.7 29.91,145.7 30.17,145.7 30.43,145.7 30.69,145.7 30.95,145.7 31.21,145.7 31.47,145.7 
				31.73,145.7 31.99,145.7 32.25,145.7 32.5,145.7 32.76,145.7 33.02,145.7 33.28,145.7 33.54,145.7 33.8,145.7 34.06,145.7 
				34.32,145.7 34.58,145.7 34.84,145.7 35.09,145.7 35.35,145.7 35.61,145.7 35.87,145.7 36.13,145.7 36.39,145.7 36.65,145.7 
				36.91,145.7 37.17,145.7 37.43,145.7 37.68,145.7 37.94,145.7 38.2,145.7 38.46,145.7 38.72,145.7 38.98,145.7 39.24,145.7 
				39.5,145.7 39.76,145.7 40.01,145.7 40.27,145.7 40.53,145.7 40.79,145.7 41.05,145.7 41.31,145.7 41.57,145.7 41.83,145.7 
				42.09,145.7 42.35,145.7 42.6,145.7 42.86,145.7 43.12,145.7 43.38,145.69 43.64,145.69 43.9,145.69 44.16,145.69 44.42,145.69 
				44.68,145.69 44.94,145.69 45.19,145.69 45.45,145.69 45.71,145.69 45.97,145.69 46.23,145.69 46.49,145.69 46.75,145.69 
				47.01,145.69 47.27,145.69 47.52,145.69 47.78,145.69 48.04,145.69 48.3,145.69 48.56,145.69 48.82,145.69 49.08,145.69 
				49.34,145.69 49.6,145.69 49.86,145.69 50.11,145.69 50.37,145.69 50.63,145.69 50.89,145.69 51.15,145.69 51.41,145.69 
				51.67,145.69 51.93,145.69 52.19,145.69 52.45,145.69 52.7,145.69 52.96,145.69 53.22,145.69 53.48,145.69 53.74,145.69 
				54,145.69 54.26,145.68 54.52,145.68 54.78,145.68 55.03,145.68 55.29,145.68 55.55,145.68 55.81,145.68 56.07,145.67 
				56.33,145.67 56.59,145.67 56.85,145.67 57.11,145.66 57.37,145.66 57.62,145.66 57.88,145.65 58.14,145.65 58.4,145.64 
				58.66,145.64 58.92,145.63 59.18,145.63 59.44,145.62 59.7,145.62 59.96,145.61 60.21,145.6 60.47,145.59 60.73,145.58 
				60.99,145.57 61.25,145.56 61.51,145.55 61.77,145.54 62.03,145.52 62.29,145.51 62.54,145.49 62.8,145.48 63.06,145.46 
				63.32,145.44 63.58,145.42 63.84,145.39 64.1,145.37 64.36,145.34 64.62,145.32 64.88,145.28 65.13,145.25 65.39,145.22 
				65.65,145.18 65.91,145.14 66.17,145.1 66.43,145.05 66.69,145 66.95,144.95 67.21,144.89 67.47,144.83 67.72,144.77 
				67.98,144.7 68.24,144.63 68.5,144.55 68.76,144.47 69.02,144.39 69.28,144.3 69.54,144.2 69.8,144.1 70.06,143.99 70.31,143.87 
				70.57,143.75 70.83,143.62 71.09,143.48 71.35,143.34 71.61,143.18 71.87,143.02 72.13,142.85 72.39,142.67 72.64,142.49 
				72.9,142.29 73.16,142.08 73.42,141.86 73.68,141.63 73.94,141.39 74.2,141.14 74.46,140.87 74.72,140.59 74.98,140.3 75.23,140 
				75.49,139.68 75.75,139.34 76.01,139 76.27,138.63 76.53,138.26 76.79,137.86 77.05,137.45 77.31,137.03 77.57,136.58 
				77.82,136.12 78.08,135.64 78.34,135.14 78.6,134.63 78.86,134.09 79.12,133.54 79.38,132.97 79.64,132.38 79.9,131.76 
				80.15,131.13 80.41,130.48 80.67,129.81 80.93,129.11 81.19,128.4 81.45,127.66 81.71,126.91 81.97,126.13 82.23,125.33 
				82.49,124.52 82.74,123.68 83,122.82 83.26,121.94 83.52,121.04 83.78,120.12 84.04,119.18 84.3,118.22 84.56,117.25 
				84.82,116.25 85.08,115.24 85.33,114.21 85.59,113.16 85.85,112.1 86.11,111.02 86.37,109.92 86.63,108.82 86.89,107.7 
				87.15,106.56 87.41,105.42 87.66,104.26 87.92,103.1 88.18,101.93 88.44,100.75 88.7,99.56 88.96,98.37 89.22,97.17 89.48,95.98 
				89.74,94.78 90,93.58 90.25,92.38 90.51,91.19 90.77,90 91.03,88.81 91.29,87.63 91.55,86.46 91.81,85.3 92.07,84.16 
				92.33,83.02 92.59,81.9 92.84,80.8 93.1,79.71 93.36,78.64 93.62,77.6 93.88,76.57 94.14,75.57 94.4,74.59 94.66,73.64 
				94.92,72.72 95.17,71.83 95.43,70.97 95.69,70.14 95.95,69.34 96.21,68.58 96.47,67.85 96.73,67.16 96.99,66.51 97.25,65.89 
				97.51,65.32 97.76,64.79 98.02,64.29 98.28,63.85 98.54,63.44 98.8,63.08 99.06,62.76 99.32,62.49 99.58,62.26 99.84,62.08 
				100.1,61.95 100.35,61.86 100.61,61.82 100.87,61.83 101.13,61.88 101.39,61.97 101.65,62.12 101.91,62.31 102.17,62.55 
				102.43,62.83 102.68,63.15 102.94,63.53 103.2,63.94 103.46,64.4 103.72,64.9 103.98,65.44 104.24,66.02 104.5,66.64 
				104.76,67.31 105.02,68 105.27,68.74 105.53,69.51 105.79,70.31 106.05,71.15 106.31,72.02 106.57,72.92 106.83,73.85 
				107.09,74.8 107.35,75.79 107.61,76.79 107.86,77.82 108.12,78.87 108.38,79.95 108.64,81.04 108.9,82.14 109.16,83.27 
				109.42,84.41 109.68,85.56 109.94,86.72 110.2,87.89 110.45,89.07 110.71,90.25 110.97,91.45 111.23,92.64 111.49,93.84 
				111.75,95.04 112.01,96.24 112.27,97.43 112.53,98.63 112.78,99.82 113.04,101 113.3,102.18 113.56,103.35 113.82,104.52 
				114.08,105.67 114.34,106.81 114.6,107.94 114.86,109.06 115.12,110.16 115.37,111.25 115.63,112.33 115.89,113.39 
				116.15,114.43 116.41,115.46 116.67,116.47 116.93,117.46 117.19,118.43 117.45,119.39 117.71,120.32 117.96,121.24 
				118.22,122.13 118.48,123.01 118.74,123.86 119,124.7 119.26,125.51 119.52,126.3 119.78,127.07 120.04,127.82 120.29,128.55 
				120.55,129.26 120.81,129.95 121.07,130.62 121.33,131.27 121.59,131.9 121.85,132.51 122.11,133.09 122.37,133.66 
				122.63,134.21 122.88,134.74 123.14,135.25 123.4,135.75 123.66,136.22 123.92,136.68 124.18,137.12 124.44,137.54 124.7,137.95 
				124.96,138.34 125.22,138.71 125.47,139.07 125.73,139.42 125.99,139.75 126.25,140.06 126.51,140.37 126.77,140.65 
				127.03,140.93 127.29,141.19 127.55,141.44 127.8,141.68 128.06,141.91 128.32,142.13 128.58,142.33 128.84,142.53 129.1,142.71 
				129.36,142.89 129.62,143.06 129.88,143.22 130.14,143.37 130.39,143.51 130.65,143.65 130.91,143.78 131.17,143.9 
				131.43,144.01 131.69,144.12 131.95,144.22 132.21,144.32 132.47,144.41 132.73,144.49 132.98,144.57 133.24,144.65 
				133.5,144.72 133.76,144.78 134.02,144.85 134.28,144.91 134.54,144.96 134.8,145.01 135.06,145.06 135.31,145.11 135.57,145.15 
				135.83,145.19 136.09,145.22 136.35,145.26 136.61,145.29 136.87,145.32 137.13,145.35 137.39,145.38 137.65,145.4 137.9,145.42 
				138.16,145.44 138.42,145.46 138.68,145.48 138.94,145.5 139.2,145.51 139.46,145.53 139.72,145.54 139.98,145.55 140.24,145.57 
				140.49,145.58 140.75,145.59 141.01,145.59 141.27,145.6 141.53,145.61 141.79,145.62 142.05,145.62 142.31,145.63 
				142.57,145.64 142.83,145.64 143.08,145.65 143.34,145.65 143.6,145.65 143.86,145.66 144.12,145.66 144.38,145.66 
				144.64,145.67 144.9,145.67 145.16,145.67 145.41,145.67 145.67,145.68 145.93,145.68 146.19,145.68 146.45,145.68 
				146.71,145.68 146.97,145.68 147.23,145.68 147.49,145.69 147.75,145.69 148,145.69 148.26,145.69 148.52,145.69 148.78,145.69 
				149.04,145.69 149.3,145.69 149.56,145.69 149.82,145.69 150.08,145.69 150.34,145.69 150.59,145.69 150.85,145.69 
				151.11,145.69 151.37,145.69 151.63,145.69 151.89,145.69 152.15,145.69 152.41,145.69 152.67,145.69 152.92,145.69 
				153.18,145.69 153.44,145.69 153.7,145.69 153.96,145.69 154.22,145.69 154.48,145.69 154.74,145.69 155,145.69 155.26,145.69 
				155.51,145.69 155.77,145.69 156.03,145.69 156.29,145.69 156.55,145.69 156.81,145.69 157.07,145.69 157.33,145.69 
				157.59,145.69 157.85,145.69 158.1,145.69 158.36,145.7 158.62,145.7 158.88,145.7 159.14,145.7 159.4,145.7 			"/>
		</g>
		<g>
			<path class="st2" d="M179.6,139.15l-4.54,0.48c-4.16,0.44-8.25-1.37-10.72-4.75l-2.69-3.69c-1.05-1.44-0.73-3.45,0.7-4.5
				l15.87-15.26c2-1.46,4.83-0.2,5.1,2.26l-0.87,21.91C182.65,137.37,181.37,138.96,179.6,139.15z"/>
			<path class="st3" d="M181.12,114.49c0-1.23,0.14-2.53,0.85-3.54c1.43-2.03,4.51-2.13,6.24-3.9c0.57-0.58,0.96-1.31,1.23-2.07
				c0.27-0.74,0.44-1.54,0.3-2.32c-0.14-0.78-0.62-1.52-1.36-1.82"/>
			<path class="st3" d="M189.79,102.65c0.14-0.78,0.62-1.52,1.36-1.82"/>
		</g>
		<g>
			<path class="st2" d="M36.34,165.27v11.81h-3.4v-21.45l3.4-0.31v7.89c1.16-0.98,2.66-1.77,4.59-1.77c2.66,0,4.38,1.56,4.38,5.26
				v10.37h-3.4v-9.18c0-2.69-0.98-3.55-2.57-3.55C38.21,164.35,37.23,164.71,36.34,165.27z"/>
			<path class="st2" d="M49.87,182.4v-5.23c0-7.86-0.03-12.18-0.18-15.21l3.12-0.18l0.15,1.56c1.07-1.04,2.48-1.9,4.25-1.9
				c3.18,0,5.54,2.82,5.54,7.25c0,5.57-3.92,8.78-8.69,8.78c-0.28,0-0.52,0-0.79-0.03v4.65L49.87,182.4z M59.38,169.52
				c0-3.52-1.5-5.29-3.55-5.29c-0.92,0-1.87,0.37-2.69,0.98c0.03,2.17,0.09,4.99,0.12,8.96c0.67,0.24,1.25,0.37,1.99,0.37
				C57.58,174.54,59.38,172.88,59.38,169.52z"/>
			<path class="st2" d="M66.36,177.08v-2.57h4.71v-16.15l-4.56-0.24l0.31-2.42h7.68v18.81h4.71l-0.27,2.57H66.36z"/>
			<path class="st2" d="M95.21,161.62l0.21,3.21c-7.62-0.25-8.78,1.5-8.78,4.44c0,3.92,2.14,5.51,8.99,5.11l-0.34,2.81
				c-9.51,0.8-12.02-2.78-12.02-7.5C83.28,165.45,86.1,161.66,95.21,161.62z"/>
			<path class="st2" d="M111.06,169.43h-9.54v-2.91h9.79L111.06,169.43z"/>
			<path class="st2" d="M117.18,182.4v-5.23c0-7.86-0.03-12.18-0.18-15.21l3.12-0.18l0.15,1.56c1.07-1.04,2.48-1.9,4.25-1.9
				c3.18,0,5.54,2.82,5.54,7.25c0,5.57-3.92,8.78-8.69,8.78c-0.28,0-0.52,0-0.79-0.03v4.65L117.18,182.4z M126.7,169.52
				c0-3.52-1.5-5.29-3.55-5.29c-0.92,0-1.87,0.37-2.69,0.98c0.03,2.17,0.09,4.99,0.12,8.96c0.67,0.24,1.25,0.37,1.99,0.37
				C124.89,174.54,126.7,172.88,126.7,169.52z"/>
			<path class="st2" d="M133.46,179.43c3.61-0.52,4.56-0.86,5.45-2.91l-0.58-0.21c-1.44-3.21-4.59-11.32-5.75-14.35l3.46-0.25
				c1.25,3.37,2.88,7.96,4.28,11.32h0.31c0.95-2.94,3.03-10.19,3.43-11.2h3.27c-1.1,3.46-2.6,8.05-4.28,12.57
				c-2.2,6.15-3.82,7.59-9.3,8.08L133.46,179.43z"/>
		</g>
		<path class="st4" d="M4.54,155.52l4.12-2.61c7.47-4.72,16.09-7.3,24.92-7.45l3.07-0.05l3.11-0.59l2.33-1.02l1.81-1.42l1.55-1.87
			l1.55-2.7l1.55-3.76l1.81-6.04l1.81-8.12l2.07-12.03l2.59-18.89l7.77-60.57l1.55-7.01l1.29-3.34l0.78-0.83l0.52-0.05l0.78,0.66
			l0.78,1.52l1.04,3.27l1.55,7.24l2.07,12.75l5.44,35.18l1.81,7.94l1.55,4.35l1.04,1.59l1.04,0.57l0.78-0.2l1.04-1.03l1.29-2.34
			l1.81-4.74l6.73-19.4l1.55-2.24l1.04-0.68l1.04,0.02l1.04,0.73l1.04,1.44l1.29,2.74l1.81,5.4l2.33,9.03l4.66,21.15l3.63,15.28
			l2.85,9.62l2.33,6.03l2.33,4.46l2.07,2.83l2.07,1.97l2.33,1.45l2.59,0.95l3.37,0.61l5.44,0.31l6.48,0.03
			c6.17,0.03,12.15-2.18,16.82-6.22l7.7-6.64"/>
	</g>
</g>
</svg>
