<?xml version="1.0" encoding="utf-8"?>
<!-- Generator: Adobe Illustrator 27.7.0, SVG Export Plug-In . SVG Version: 6.00 Build 0)  -->
<svg version="1.1" id="Layer_1" xmlns="http://www.w3.org/2000/svg" xmlns:xlink="http://www.w3.org/1999/xlink" x="0px" y="0px"
	 viewBox="0 0 200 200" style="enable-background:new 0 0 200 200;" xml:space="preserve">
<style type="text/css">
	.st0{fill:#27AAE1;}
	.st1{fill:#1C75BC;}
	.st2{fill:#FFFFFF;}
	.st3{fill:none;stroke:#FFFFFF;stroke-width:1.9125;stroke-linecap:round;stroke-linejoin:round;stroke-miterlimit:10;}
	.st4{fill:none;stroke:#FFFFFF;stroke-width:7.65;stroke-linecap:round;stroke-linejoin:round;stroke-miterlimit:10;}
	.st5{fill:none;stroke:#000000;stroke-width:1.9125;stroke-linecap:round;stroke-linejoin:round;stroke-miterlimit:10;}
	.st6{fill:none;stroke:#000000;stroke-width:7.65;stroke-linecap:round;stroke-linejoin:round;stroke-miterlimit:10;}
</style>
<g>
	<g>
		<g>
			<polyline class="st0" points="21.81,145.7 22.07,145.7 22.33,145.7 22.59,145.7 22.85,145.7 23.11,145.7 23.36,145.7 
				23.62,145.7 23.88,145.7 24.14,145.7 24.4,145.7 24.66,145.7 24.92,145.7 25.18,145.69 25.44,145.69 25.69,145.69 25.95,145.69 
				26.21,145.69 26.47,145.69 26.73,145.69 26.99,145.69 27.25,145.69 27.51,145.69 27.77,145.69 28.03,145.69 28.28,145.69 
				28.54,145.69 28.8,145.69 29.06,145.69 29.32,145.69 29.58,145.69 29.84,145.69 30.1,145.69 30.36,145.69 30.62,145.69 
				30.87,145.69 31.13,145.69 31.39,145.69 31.65,145.69 31.91,145.69 32.17,145.69 32.43,145.69 32.69,145.69 32.95,145.69 
				33.21,145.69 33.46,145.69 33.72,145.68 33.98,145.68 34.24,145.68 34.5,145.68 34.76,145.68 35.02,145.68 35.28,145.67 
				35.54,145.67 35.79,145.67 36.05,145.66 36.31,145.66 36.57,145.66 36.83,145.65 37.09,145.65 37.35,145.64 37.61,145.63 
				37.87,145.63 38.13,145.62 38.38,145.61 38.64,145.6 38.9,145.59 39.16,145.58 39.42,145.56 39.68,145.55 39.94,145.53 
				40.2,145.51 40.46,145.49 40.72,145.47 40.97,145.45 41.23,145.42 41.49,145.39 41.75,145.36 42.01,145.33 42.27,145.29 
				42.53,145.25 42.79,145.21 43.05,145.16 43.3,145.1 43.56,145.05 43.82,144.98 44.08,144.91 44.34,144.84 44.6,144.76 
				44.86,144.67 45.12,144.58 45.38,144.47 45.64,144.36 45.89,144.24 46.15,144.11 46.41,143.97 46.67,143.82 46.93,143.66 
				47.19,143.49 47.45,143.3 47.71,143.1 47.97,142.89 48.23,142.66 48.48,142.41 48.74,142.15 49,141.87 49.26,141.57 
				49.52,141.25 49.78,140.91 50.04,140.54 50.3,140.16 50.56,139.75 50.81,139.32 51.07,138.86 51.33,138.37 51.59,137.85 
				51.85,137.31 52.11,136.73 52.37,136.12 52.63,135.48 52.89,134.81 53.15,134.1 53.4,133.36 53.66,132.57 53.92,131.75 
				54.18,130.89 54.44,130 54.7,129.05 54.96,128.07 55.22,127.05 55.48,125.98 55.74,124.87 55.99,123.71 56.25,122.51 
				56.51,121.26 56.77,119.96 57.03,118.62 57.29,117.24 57.55,115.8 57.81,114.32 58.07,112.8 58.32,111.22 58.58,109.61 
				58.84,107.94 59.1,106.24 59.36,104.49 59.62,102.69 59.88,100.86 60.14,98.98 60.4,97.07 60.66,95.12 60.91,93.14 61.17,91.12 
				61.43,89.07 61.69,86.99 61.95,84.89 62.21,82.76 62.47,80.61 62.73,78.45 62.99,76.27 63.25,74.07 63.5,71.87 63.76,69.66 
				64.02,67.45 64.28,65.24 64.54,63.04 64.8,60.85 65.06,58.66 65.32,56.5 65.58,54.36 65.84,52.24 66.09,50.15 66.35,48.1 
				66.61,46.08 66.87,44.1 67.13,42.17 67.39,40.29 67.65,38.47 67.91,36.7 68.17,34.99 68.42,33.35 68.68,31.77 68.94,30.27 
				69.2,28.85 69.46,27.5 69.72,26.24 69.98,25.06 70.24,23.97 70.5,22.97 70.76,22.06 71.01,21.25 71.27,20.54 71.53,19.92 
				71.79,19.4 72.05,18.99 72.31,18.68 72.57,18.47 72.83,18.37 73.09,18.37 73.35,18.47 73.6,18.68 73.86,18.99 74.12,19.41 
				74.38,19.92 74.64,20.54 74.9,21.25 75.16,22.07 75.42,22.97 75.68,23.97 75.93,25.06 76.19,26.24 76.45,27.5 76.71,28.85 
				76.97,30.27 77.23,31.77 77.49,33.35 77.75,34.99 78.01,36.7 78.27,38.46 78.52,40.29 78.78,42.17 79.04,44.1 79.3,46.07 
				79.56,48.09 79.82,50.14 80.08,52.23 80.34,54.34 80.6,56.48 80.86,58.64 81.11,60.82 81.37,63.01 81.63,65.21 81.89,67.42 
				82.15,69.63 82.41,71.83 82.67,74.03 82.93,76.22 83.19,78.4 83.44,80.57 83.7,82.71 83.96,84.84 84.22,86.94 84.48,89.01 
				84.74,91.06 85,93.08 85.26,95.06 85.52,97.01 85.78,98.92 86.03,100.79 86.29,102.62 86.55,104.41 86.81,106.16 87.07,107.87 
				87.33,109.53 87.59,111.15 87.85,112.72 88.11,114.24 88.37,115.72 88.62,117.16 88.88,118.54 89.14,119.88 89.4,121.18 
				89.66,122.43 89.92,123.63 90.18,124.79 90.44,125.9 90.7,126.97 90.95,128 91.21,128.98 91.47,129.92 91.73,130.82 
				91.99,131.68 92.25,132.5 92.51,133.29 92.77,134.03 93.03,134.74 93.29,135.42 93.54,136.06 93.8,136.67 94.06,137.25 
				94.32,137.79 94.58,138.31 94.84,138.8 95.1,139.26 95.36,139.7 95.62,140.11 95.88,140.5 96.13,140.86 96.39,141.2 
				96.65,141.52 96.91,141.83 97.17,142.11 97.43,142.37 97.69,142.62 97.95,142.85 98.21,143.07 98.46,143.27 98.72,143.46 
				98.98,143.63 99.24,143.8 99.5,143.95 99.76,144.09 100.02,144.22 100.28,144.34 100.54,144.45 100.8,144.56 101.05,144.65 
				101.31,144.74 101.57,144.82 101.83,144.9 102.09,144.97 102.35,145.03 102.61,145.09 102.87,145.15 103.13,145.19 
				103.39,145.24 103.64,145.28 103.9,145.32 104.16,145.36 104.42,145.39 104.68,145.42 104.94,145.44 105.2,145.47 105.46,145.49 
				105.72,145.51 105.98,145.53 106.23,145.54 106.49,145.56 106.75,145.57 107.01,145.59 107.27,145.6 107.53,145.61 
				107.79,145.62 108.05,145.62 108.31,145.63 108.56,145.64 108.82,145.64 109.08,145.65 109.34,145.65 109.6,145.66 
				109.86,145.66 110.12,145.67 110.38,145.67 110.64,145.67 110.9,145.68 111.15,145.68 111.41,145.68 111.67,145.68 
				111.93,145.68 112.19,145.68 112.45,145.69 112.71,145.69 112.97,145.69 113.23,145.69 113.49,145.69 113.74,145.69 114,145.69 
				114.26,145.69 114.52,145.69 114.78,145.69 115.04,145.69 115.3,145.69 115.56,145.69 115.82,145.69 116.07,145.69 
				116.33,145.69 116.59,145.69 116.85,145.69 117.11,145.69 117.37,145.69 117.63,145.69 117.89,145.69 118.15,145.69 
				118.41,145.69 118.66,145.69 118.92,145.69 119.18,145.69 119.44,145.69 119.7,145.69 119.96,145.69 120.22,145.69 
				120.48,145.69 120.74,145.69 121,145.69 121.25,145.7 121.51,145.7 121.77,145.7 122.03,145.7 122.29,145.7 122.55,145.7 
				122.81,145.7 123.07,145.7 123.33,145.7 123.58,145.7 123.84,145.7 124.1,145.7 124.36,145.7 124.62,145.7 124.88,145.7 
				125.14,145.7 125.4,145.7 125.66,145.7 125.92,145.7 126.17,145.7 126.43,145.7 126.69,145.7 126.95,145.7 127.21,145.7 
				127.47,145.7 127.73,145.7 127.99,145.7 128.25,145.7 128.51,145.7 128.76,145.7 129.02,145.7 129.28,145.7 129.54,145.7 
				129.8,145.7 130.06,145.7 130.32,145.7 130.58,145.7 130.84,145.7 131.09,145.7 131.35,145.7 131.61,145.7 131.87,145.7 
				132.13,145.7 132.39,145.7 132.65,145.7 132.91,145.7 133.17,145.7 133.43,145.7 133.68,145.7 133.94,145.7 134.2,145.7 
				134.46,145.7 134.72,145.7 134.98,145.7 135.24,145.7 135.5,145.7 135.76,145.7 136.02,145.7 136.27,145.7 136.53,145.7 
				136.79,145.7 137.05,145.7 137.31,145.7 137.57,145.7 137.83,145.7 138.09,145.7 138.35,145.7 138.61,145.7 138.86,145.7 
				139.12,145.7 139.38,145.7 139.64,145.7 139.9,145.7 140.16,145.7 140.42,145.7 140.68,145.7 140.94,145.7 141.19,145.7 
				141.45,145.7 141.71,145.7 141.97,145.7 142.23,145.7 142.49,145.7 142.75,145.7 143.01,145.7 143.27,145.7 143.53,145.7 
				143.78,145.7 144.04,145.7 144.3,145.7 144.56,145.7 144.82,145.7 145.08,145.7 145.34,145.7 145.6,145.7 145.86,145.7 
				146.12,145.7 146.37,145.7 146.63,145.7 146.89,145.7 147.15,145.7 147.41,145.7 147.67,145.7 147.93,145.7 148.19,145.7 
				148.45,145.7 148.7,145.7 148.96,145.7 149.22,145.7 149.48,145.7 149.74,145.7 150,145.7 150.26,145.7 150.52,145.7 
				150.78,145.7 151.04,145.7 151.29,145.7 151.55,145.7 151.81,145.7 152.07,145.7 152.33,145.7 152.59,145.7 152.85,145.7 
				153.11,145.7 153.37,145.7 153.63,145.7 153.88,145.7 154.14,145.7 154.4,145.7 154.66,145.7 154.92,145.7 155.18,145.7 
				155.44,145.7 155.7,145.7 155.96,145.7 156.21,145.7 156.47,145.7 156.73,145.7 156.99,145.7 157.25,145.7 157.51,145.7 
				157.77,145.7 158.03,145.7 158.29,145.7 158.55,145.7 158.8,145.7 159.06,145.7 159.32,145.7 159.58,145.7 159.84,145.7 
				160.1,145.7 160.36,145.7 160.62,145.7 160.88,145.7 161.14,145.7 161.39,145.7 161.65,145.7 161.91,145.7 162.17,145.7 
				162.43,145.7 162.69,145.7 162.95,145.7 163.21,145.7 163.47,145.7 163.72,145.7 163.98,145.7 164.24,145.7 164.5,145.7 
				164.76,145.7 165.02,145.7 165.28,145.7 165.54,145.7 165.8,145.7 166.06,145.7 			"/>
		</g>
		<g>
			<polyline class="st1" points="23.88,145.7 24.14,145.7 24.4,145.7 24.66,145.7 24.92,145.7 25.18,145.7 25.44,145.7 25.69,145.7 
				25.95,145.7 26.21,145.7 26.47,145.7 26.73,145.7 26.99,145.7 27.25,145.7 27.51,145.7 27.77,145.7 28.03,145.7 28.28,145.7 
				28.54,145.7 28.8,145.7 29.06,145.7 29.32,145.7 29.58,145.7 29.84,145.7 30.1,145.7 30.36,145.7 30.62,145.7 30.87,145.7 
				31.13,145.7 31.39,145.7 31.65,145.7 31.91,145.7 32.17,145.7 32.43,145.7 32.69,145.7 32.95,145.7 33.21,145.7 33.46,145.7 
				33.72,145.7 33.98,145.7 34.24,145.7 34.5,145.7 34.76,145.7 35.02,145.7 35.28,145.7 35.54,145.7 35.79,145.7 36.05,145.7 
				36.31,145.7 36.57,145.7 36.83,145.7 37.09,145.7 37.35,145.7 37.61,145.7 37.87,145.7 38.13,145.7 38.38,145.7 38.64,145.7 
				38.9,145.7 39.16,145.7 39.42,145.7 39.68,145.7 39.94,145.7 40.2,145.7 40.46,145.7 40.72,145.7 40.97,145.7 41.23,145.7 
				41.49,145.7 41.75,145.7 42.01,145.7 42.27,145.7 42.53,145.7 42.79,145.7 43.05,145.7 43.3,145.7 43.56,145.7 43.82,145.7 
				44.08,145.7 44.34,145.7 44.6,145.7 44.86,145.7 45.12,145.7 45.38,145.7 45.64,145.7 45.89,145.7 46.15,145.7 46.41,145.7 
				46.67,145.7 46.93,145.7 47.19,145.7 47.45,145.7 47.71,145.7 47.97,145.69 48.23,145.69 48.48,145.69 48.74,145.69 49,145.69 
				49.26,145.69 49.52,145.69 49.78,145.69 50.04,145.69 50.3,145.69 50.56,145.69 50.81,145.69 51.07,145.69 51.33,145.69 
				51.59,145.69 51.85,145.69 52.11,145.69 52.37,145.69 52.63,145.69 52.89,145.69 53.15,145.69 53.4,145.69 53.66,145.69 
				53.92,145.69 54.18,145.69 54.44,145.69 54.7,145.69 54.96,145.69 55.22,145.69 55.48,145.69 55.74,145.69 55.99,145.69 
				56.25,145.69 56.51,145.69 56.77,145.69 57.03,145.69 57.29,145.69 57.55,145.69 57.81,145.69 58.07,145.69 58.32,145.69 
				58.58,145.69 58.84,145.68 59.1,145.68 59.36,145.68 59.62,145.68 59.88,145.68 60.14,145.68 60.4,145.68 60.66,145.67 
				60.91,145.67 61.17,145.67 61.43,145.67 61.69,145.66 61.95,145.66 62.21,145.66 62.47,145.65 62.73,145.65 62.99,145.64 
				63.25,145.64 63.5,145.63 63.76,145.63 64.02,145.62 64.28,145.62 64.54,145.61 64.8,145.6 65.06,145.59 65.32,145.58 
				65.58,145.57 65.84,145.56 66.09,145.55 66.35,145.54 66.61,145.52 66.87,145.51 67.13,145.49 67.39,145.48 67.65,145.46 
				67.91,145.44 68.17,145.42 68.42,145.39 68.68,145.37 68.94,145.34 69.2,145.32 69.46,145.28 69.72,145.25 69.98,145.22 
				70.24,145.18 70.5,145.14 70.76,145.1 71.01,145.05 71.27,145 71.53,144.95 71.79,144.89 72.05,144.83 72.31,144.77 72.57,144.7 
				72.83,144.63 73.09,144.55 73.35,144.47 73.6,144.39 73.86,144.3 74.12,144.2 74.38,144.1 74.64,143.99 74.9,143.87 
				75.16,143.75 75.42,143.62 75.68,143.48 75.93,143.34 76.19,143.18 76.45,143.02 76.71,142.85 76.97,142.67 77.23,142.49 
				77.49,142.29 77.75,142.08 78.01,141.86 78.27,141.63 78.52,141.39 78.78,141.14 79.04,140.87 79.3,140.59 79.56,140.3 
				79.82,140 80.08,139.68 80.34,139.34 80.6,139 80.86,138.63 81.11,138.26 81.37,137.86 81.63,137.45 81.89,137.03 82.15,136.58 
				82.41,136.12 82.67,135.64 82.93,135.14 83.19,134.63 83.44,134.09 83.7,133.54 83.96,132.97 84.22,132.38 84.48,131.76 
				84.74,131.13 85,130.48 85.26,129.81 85.52,129.11 85.78,128.4 86.03,127.66 86.29,126.91 86.55,126.13 86.81,125.33 
				87.07,124.52 87.33,123.68 87.59,122.82 87.85,121.94 88.11,121.04 88.37,120.12 88.62,119.18 88.88,118.22 89.14,117.25 
				89.4,116.25 89.66,115.24 89.92,114.21 90.18,113.16 90.44,112.1 90.7,111.02 90.95,109.92 91.21,108.82 91.47,107.7 
				91.73,106.56 91.99,105.42 92.25,104.26 92.51,103.1 92.77,101.93 93.03,100.75 93.29,99.56 93.54,98.37 93.8,97.17 94.06,95.98 
				94.32,94.78 94.58,93.58 94.84,92.38 95.1,91.19 95.36,90 95.62,88.81 95.88,87.63 96.13,86.46 96.39,85.3 96.65,84.16 
				96.91,83.02 97.17,81.9 97.43,80.8 97.69,79.71 97.95,78.64 98.21,77.6 98.46,76.57 98.72,75.57 98.98,74.59 99.24,73.64 
				99.5,72.72 99.76,71.83 100.02,70.97 100.28,70.14 100.54,69.34 100.8,68.58 101.05,67.85 101.31,67.16 101.57,66.51 
				101.83,65.89 102.09,65.32 102.35,64.79 102.61,64.29 102.87,63.85 103.13,63.44 103.39,63.08 103.64,62.76 103.9,62.49 
				104.16,62.26 104.42,62.08 104.68,61.95 104.94,61.86 105.2,61.82 105.46,61.83 105.72,61.88 105.98,61.97 106.23,62.12 
				106.49,62.31 106.75,62.55 107.01,62.83 107.27,63.15 107.53,63.53 107.79,63.94 108.05,64.4 108.31,64.9 108.56,65.44 
				108.82,66.02 109.08,66.64 109.34,67.31 109.6,68 109.86,68.74 110.12,69.51 110.38,70.31 110.64,71.15 110.9,72.02 
				111.15,72.92 111.41,73.85 111.67,74.8 111.93,75.79 112.19,76.79 112.45,77.82 112.71,78.87 112.97,79.95 113.23,81.04 
				113.49,82.14 113.74,83.27 114,84.41 114.26,85.56 114.52,86.72 114.78,87.89 115.04,89.07 115.3,90.25 115.56,91.45 
				115.82,92.64 116.07,93.84 116.33,95.04 116.59,96.24 116.85,97.43 117.11,98.63 117.37,99.82 117.63,101 117.89,102.18 
				118.15,103.35 118.41,104.52 118.66,105.67 118.92,106.81 119.18,107.94 119.44,109.06 119.7,110.16 119.96,111.25 
				120.22,112.33 120.48,113.39 120.74,114.43 121,115.46 121.25,116.47 121.51,117.46 121.77,118.43 122.03,119.39 122.29,120.32 
				122.55,121.24 122.81,122.13 123.07,123.01 123.33,123.86 123.58,124.7 123.84,125.51 124.1,126.3 124.36,127.07 124.62,127.82 
				124.88,128.55 125.14,129.26 125.4,129.95 125.66,130.62 125.92,131.27 126.17,131.9 126.43,132.51 126.69,133.09 126.95,133.66 
				127.21,134.21 127.47,134.74 127.73,135.25 127.99,135.75 128.25,136.22 128.51,136.68 128.76,137.12 129.02,137.54 
				129.28,137.95 129.54,138.34 129.8,138.71 130.06,139.07 130.32,139.42 130.58,139.75 130.84,140.06 131.09,140.37 
				131.35,140.65 131.61,140.93 131.87,141.19 132.13,141.44 132.39,141.68 132.65,141.91 132.91,142.13 133.17,142.33 
				133.43,142.53 133.68,142.71 133.94,142.89 134.2,143.06 134.46,143.22 134.72,143.37 134.98,143.51 135.24,143.65 135.5,143.78 
				135.76,143.9 136.02,144.01 136.27,144.12 136.53,144.22 136.79,144.32 137.05,144.41 137.31,144.49 137.57,144.57 
				137.83,144.65 138.09,144.72 138.35,144.78 138.61,144.85 138.86,144.91 139.12,144.96 139.38,145.01 139.64,145.06 
				139.9,145.11 140.16,145.15 140.42,145.19 140.68,145.22 140.94,145.26 141.19,145.29 141.45,145.32 141.71,145.35 
				141.97,145.38 142.23,145.4 142.49,145.42 142.75,145.44 143.01,145.46 143.27,145.48 143.53,145.5 143.78,145.51 144.04,145.53 
				144.3,145.54 144.56,145.55 144.82,145.57 145.08,145.58 145.34,145.59 145.6,145.59 145.86,145.6 146.12,145.61 146.37,145.62 
				146.63,145.62 146.89,145.63 147.15,145.64 147.41,145.64 147.67,145.65 147.93,145.65 148.19,145.65 148.45,145.66 
				148.7,145.66 148.96,145.66 149.22,145.67 149.48,145.67 149.74,145.67 150,145.67 150.26,145.68 150.52,145.68 150.78,145.68 
				151.04,145.68 151.29,145.68 151.55,145.68 151.81,145.68 152.07,145.69 152.33,145.69 152.59,145.69 152.85,145.69 
				153.11,145.69 153.37,145.69 153.63,145.69 153.88,145.69 154.14,145.69 154.4,145.69 154.66,145.69 154.92,145.69 
				155.18,145.69 155.44,145.69 155.7,145.69 155.96,145.69 156.21,145.69 156.47,145.69 156.73,145.69 156.99,145.69 
				157.25,145.69 157.51,145.69 157.77,145.69 158.03,145.69 158.29,145.69 158.55,145.69 158.8,145.69 159.06,145.69 
				159.32,145.69 159.58,145.69 159.84,145.69 160.1,145.69 160.36,145.69 160.62,145.69 160.88,145.69 161.14,145.69 
				161.39,145.69 161.65,145.69 161.91,145.69 162.17,145.69 162.43,145.69 162.69,145.69 162.95,145.7 163.21,145.7 163.47,145.7 
				163.72,145.7 163.98,145.7 			"/>
		</g>
		<g>
			<path class="st5" d="M185.78,114.42c0-1.23,0.14-2.53,0.85-3.54c1.43-2.03,4.51-2.13,6.24-3.9c0.57-0.58,0.96-1.31,1.23-2.07
				c0.27-0.74,0.44-1.54,0.3-2.32c-0.14-0.78-0.62-1.52-1.36-1.82"/>
			<path class="st5" d="M194.45,102.58c0.14-0.78,0.62-1.52,1.36-1.82"/>
			<path d="M184.18,139.15l-4.54,0.48c-4.16,0.44-8.25-1.37-10.72-4.75l-2.69-3.69c-1.05-1.44-0.73-3.45,0.7-4.5l15.87-15.26
				c2-1.46,4.83-0.2,5.1,2.26l-0.87,21.91C187.23,137.37,185.95,138.96,184.18,139.15z"/>
		</g>
		<g>
			<path d="M40.93,165.27v11.81h-3.4v-21.45l3.4-0.31v7.89c1.16-0.98,2.66-1.77,4.59-1.77c2.66,0,4.38,1.56,4.38,5.26v10.37h-3.4
				v-9.18c0-2.69-0.98-3.55-2.57-3.55C42.79,164.35,41.81,164.71,40.93,165.27z"/>
			<path d="M54.45,182.4v-5.23c0-7.86-0.03-12.18-0.18-15.21l3.12-0.18l0.15,1.56c1.07-1.04,2.48-1.9,4.25-1.9
				c3.18,0,5.54,2.82,5.54,7.25c0,5.57-3.92,8.78-8.69,8.78c-0.27,0-0.52,0-0.8-0.03v4.65L54.45,182.4z M63.97,169.52
				c0-3.52-1.5-5.29-3.55-5.29c-0.92,0-1.87,0.37-2.69,0.98c0.03,2.17,0.09,4.99,0.12,8.96c0.67,0.24,1.25,0.37,1.99,0.37
				C62.16,174.54,63.97,172.88,63.97,169.52z"/>
			<path d="M70.95,177.08v-2.57h4.71v-16.15l-4.56-0.24l0.31-2.42h7.68v18.81h4.71l-0.27,2.57H70.95z"/>
			<path d="M99.8,161.62l0.21,3.21c-7.62-0.25-8.78,1.5-8.78,4.44c0,3.92,2.14,5.51,8.99,5.11l-0.34,2.81
				c-9.51,0.8-12.02-2.78-12.02-7.5C87.87,165.45,90.68,161.66,99.8,161.62z"/>
			<path d="M115.65,169.43h-9.54v-2.91h9.79L115.65,169.43z"/>
			<path d="M121.77,182.4v-5.23c0-7.86-0.03-12.18-0.18-15.21l3.12-0.18l0.15,1.56c1.07-1.04,2.48-1.9,4.25-1.9
				c3.18,0,5.54,2.82,5.54,7.25c0,5.57-3.92,8.78-8.69,8.78c-0.28,0-0.52,0-0.79-0.03v4.65L121.77,182.4z M131.29,169.52
				c0-3.52-1.5-5.29-3.55-5.29c-0.92,0-1.87,0.37-2.69,0.98c0.03,2.17,0.09,4.99,0.12,8.96c0.67,0.24,1.25,0.37,1.99,0.37
				C129.48,174.54,131.29,172.88,131.29,169.52z"/>
			<path d="M138.05,179.43c3.61-0.52,4.56-0.86,5.45-2.91l-0.58-0.21c-1.44-3.21-4.59-11.32-5.75-14.35l3.46-0.25
				c1.25,3.37,2.88,7.96,4.28,11.32h0.31c0.95-2.94,3.03-10.19,3.43-11.2h3.27c-1.1,3.46-2.6,8.05-4.28,12.57
				c-2.2,6.15-3.82,7.59-9.3,8.08L138.05,179.43z"/>
		</g>
		<path class="st6" d="M9.12,155.52l4.12-2.61c7.47-4.72,16.09-7.3,24.92-7.45l3.07-0.05l3.11-0.59l2.33-1.02l1.81-1.42l1.55-1.87
			l1.55-2.7l1.55-3.76l1.81-6.04l1.81-8.12l2.07-12.03l2.59-18.89l7.77-60.57l1.55-7.01l1.29-3.34l0.78-0.83l0.52-0.05l0.78,0.66
			l0.78,1.52l1.04,3.27l1.55,7.24l2.07,12.75L85,77.8l1.81,7.94l1.55,4.35l1.04,1.59l1.04,0.57l0.78-0.2l1.04-1.03l1.29-2.34
			l1.81-4.74l6.73-19.4l1.55-2.24l1.04-0.68l1.04,0.02l1.04,0.73l1.04,1.44l1.29,2.74l1.81,5.4l2.33,9.03l4.66,21.15l3.63,15.28
			l2.85,9.62l2.33,6.03l2.33,4.46l2.07,2.83l2.07,1.97l2.33,1.45l2.59,0.95l3.37,0.61l5.44,0.31l6.48,0.03
			c6.17,0.03,12.15-2.18,16.82-6.22l7.7-6.64"/>
	</g>
</g>
</svg>
